<svg version="1.1" id="Layer_1" xmlns="http://www.w3.org/2000/svg" xmlns:xlink="http://www.w3.org/1999/xlink" x="0px" y="0px"
	 width="100%" viewBox="0 0 960 1024" enable-background="new 0 0 960 1024" xml:space="preserve">
<path fill="#000000" opacity="1.000000" stroke="none" 
	d="
M705.868225,760.164978 
	C687.306641,762.003723 669.133545,760.851929 650.984802,761.106995 
	C638.155701,761.287292 625.322449,761.205627 612.491150,761.179138 
	C606.436218,761.166626 605.804749,760.525269 605.812378,754.663208 
	C605.833740,738.332581 605.870850,722.001770 605.948120,705.671326 
	C605.982483,698.399780 606.586609,697.837524 614.066895,697.823303 
	C635.063599,697.783508 656.063049,697.962708 677.056091,697.672668 
	C690.056885,697.493103 700.831848,692.983337 706.487061,680.102173 
	C708.554993,675.391846 708.919067,670.492737 708.919922,665.460327 
	C708.931091,598.637390 708.975586,531.814514 709.006409,464.991577 
	C709.018616,438.495697 708.433167,411.982574 709.213257,385.509521 
	C709.805359,365.416504 695.734009,351.112335 675.384888,351.958588 
	C654.757019,352.816498 634.065857,352.175659 613.402466,352.143677 
	C606.296875,352.132690 605.807800,351.568573 605.813721,344.396820 
	C605.827209,328.066101 605.816833,311.735291 605.869568,295.404694 
	C605.889771,289.150604 606.440002,288.622894 612.800354,288.614410 
	C634.796936,288.585052 656.794983,288.747131 678.789551,288.534729 
	C691.282654,288.414062 703.729797,288.053558 716.031494,290.929749 
	C745.497192,297.818939 765.777100,314.593414 774.236633,344.368103 
	C777.070801,354.343384 778.324768,364.440613 778.354004,374.821381 
	C778.448730,408.476013 778.786804,442.130157 779.101562,475.783844 
	C779.238403,490.410522 786.657898,497.691895 801.417603,497.887604 
	C805.416077,497.940643 809.416016,497.905182 813.415161,497.887970 
	C816.674988,497.873932 818.299438,499.330109 818.286560,502.732666 
	C818.227173,518.396545 818.219604,534.060791 818.265686,549.724731 
	C818.274902,552.860657 816.937927,554.346802 813.800171,554.322632 
	C809.967896,554.293152 806.126892,554.509094 802.304016,554.323181 
	C790.097107,553.729614 778.739441,560.667297 778.923035,577.222351 
	C779.253845,607.046753 779.081482,636.878357 778.916199,666.705872 
	C778.829163,682.411682 777.467957,697.985474 771.653809,712.815247 
	C762.812012,735.367493 746.215210,749.354431 723.307434,756.169922 
	C717.742188,757.825684 711.978821,758.815247 705.868225,760.164978 
z"/>
<path fill="#000000" opacity="1.000000" stroke="none" 
	d="
M236.210251,379.401489 
	C236.205841,475.826202 236.195724,571.793823 236.257904,667.761475 
	C236.269333,685.401367 248.377380,697.597839 266.141052,697.750427 
	C287.798737,697.936523 309.459198,697.787964 331.118469,697.804749 
	C338.346405,697.810364 339.133636,698.608948 339.142822,705.853455 
	C339.163177,721.847778 339.172119,737.842163 339.163330,753.836487 
	C339.159637,760.540894 338.621063,761.160217 332.197723,761.157776 
	C305.873322,761.147766 279.545013,761.347900 253.225769,760.957153 
	C232.560486,760.650391 212.877945,756.276001 195.972076,743.475037 
	C180.582108,731.821899 172.351166,715.886292 169.027649,697.143494 
	C167.306305,687.436035 166.756195,677.670532 166.800674,667.810120 
	C166.935226,637.987427 166.882050,608.163574 166.808884,578.340393 
	C166.778473,565.944702 160.922318,557.195679 150.745941,554.717773 
	C145.388565,553.413269 139.792557,554.337524 134.305893,554.222778 
	C127.184769,554.073853 126.746025,553.691467 126.745461,546.447571 
	C126.744339,532.285706 126.910942,518.121155 126.672569,503.963348 
	C126.590492,499.089142 128.425919,497.452759 133.108032,497.633636 
	C137.921982,497.819611 142.795807,497.782806 147.576401,497.246277 
	C159.944550,495.858154 166.707657,488.414154 166.793686,475.927917 
	C166.955551,452.436829 166.868622,428.944092 166.888367,405.452026 
	C166.899002,392.789642 166.354843,380.096497 167.047272,367.471313 
	C168.500519,340.973694 177.590759,318.036865 200.567978,302.635925 
	C213.725815,293.816620 228.575821,289.185089 244.318451,288.918304 
	C273.967316,288.415802 303.629395,288.727814 333.285217,288.562073 
	C337.576538,288.538055 339.268677,290.115631 339.237976,294.408264 
	C339.117615,311.234833 339.222321,328.062836 339.155182,344.889984 
	C339.130249,351.140076 338.079132,352.160370 331.854401,352.167633 
	C310.195099,352.192871 288.535583,352.102631 266.876373,352.157501 
	C250.094910,352.200043 238.686722,362.245056 236.210251,379.401489 
z"/>
<path fill="#000000" opacity="1.000000" stroke="none" 
	d="
M606.652039,863.793091 
	C510.719055,863.667419 415.256897,863.386230 319.795105,863.482971 
	C304.449707,863.498535 301.201630,860.829468 301.776459,845.471924 
	C302.137665,835.821594 301.795258,826.146729 301.899323,816.484314 
	C302.019470,805.330017 307.408813,799.891479 318.584747,799.886292 
	C432.046844,799.833069 545.508972,799.816528 658.971069,799.830872 
	C669.754578,799.832214 674.026611,804.313599 674.027466,815.113098 
	C674.028320,825.942688 674.027832,836.772400 674.067993,847.601929 
	C674.119019,861.362366 672.070129,863.306274 658.092102,863.406250 
	C641.102478,863.527771 624.107178,862.903931 606.652039,863.793091 
z"/>
<path fill="#000000" opacity="1.000000" stroke="none" 
	d="
M452.545197,570.229980 
	C449.746338,565.263000 448.989777,560.208435 448.987488,554.971741 
	C448.973175,521.981812 448.903290,488.991791 448.944977,456.001953 
	C448.963531,441.339905 459.529297,430.881317 474.231079,430.871033 
	C509.053894,430.846649 543.881470,431.216705 578.697205,430.725006 
	C591.753479,430.540588 604.797424,441.212738 604.481262,456.357758 
	C603.775574,490.165375 603.958984,524.004761 604.525940,557.818787 
	C604.730286,570.006409 593.646484,581.755981 580.390686,581.523438 
	C544.911926,580.901184 509.414856,581.150696 473.926727,581.351013 
	C464.731018,581.402954 457.845917,577.985229 452.545197,570.229980 
z"/>
<path fill="#000000" opacity="1.000000" stroke="none" 
	d="
M393.684937,329.000000 
	C393.701050,320.170868 393.666290,311.841217 393.749390,303.512756 
	C393.841400,294.291687 400.377380,287.133331 409.641296,287.042969 
	C432.960083,286.815491 456.286102,286.755219 479.602417,287.095673 
	C491.586090,287.270660 497.206055,293.502045 497.334351,305.293732 
	C497.566193,326.609009 497.835266,347.924286 497.956879,369.240295 
	C498.037994,383.466095 491.395813,390.049377 477.216278,390.058197 
	C455.893738,390.071411 434.571198,390.064606 413.248688,390.031830 
	C399.773132,390.011108 393.725006,383.948120 393.701752,370.479553 
	C393.678192,356.819733 393.689789,343.159851 393.684937,329.000000 
z"/>
<path fill="#000000" opacity="1.000000" stroke="none" 
	d="
M548.959595,252.181824 
	C535.799866,252.146790 523.132751,252.175919 510.467010,252.053696 
	C499.836060,251.951096 495.949585,248.029984 495.918243,237.528412 
	C495.875977,223.362122 495.827240,209.195068 495.928375,195.029388 
	C495.997162,185.393555 500.813080,180.798401 510.544922,180.791092 
	C525.044800,180.780197 539.544739,180.783920 554.044556,180.817749 
	C563.942932,180.840851 568.192200,185.176697 568.202087,195.209106 
	C568.215515,208.875656 568.218445,222.542252 568.206543,236.208801 
	C568.196045,248.187668 564.281311,252.142410 552.452820,252.174591 
	C551.452820,252.177322 550.452759,252.178513 548.959595,252.181824 
z"/>
</svg>